<svg id="Capa_1" data-name="Capa 1" xmlns="http://www.w3.org/2000/svg" xmlns:xlink="http://www.w3.org/1999/xlink" viewBox="0 0 473.31 270.45"><defs><style>.cls-1{fill:#fff;}.cls-2{clip-path:url(#clip-path);}.cls-3{clip-path:url(#clip-path-2);}.cls-4{clip-path:url(#clip-path-3);}</style><clipPath id="clip-path" transform="translate(-5.42 -97.23)"><rect class="cls-1" x="109.33" y="97.23" width="14.67" height="24.1"/></clipPath><clipPath id="clip-path-2" transform="translate(-5.42 -97.23)"><rect class="cls-1" x="5.42" y="189.33" width="11.91" height="10.67"/></clipPath><clipPath id="clip-path-3" transform="translate(-5.42 -97.23)"><rect class="cls-1" x="213.33" y="192" width="15.09" height="9.33"/></clipPath></defs><rect class="cls-1" x="103.91" width="14.67" height="24.1"/><g class="cls-2"><path class="cls-1" d="M109.83,108.53c0-4.82,4.33-7.83,7.07-11.22,2.78,3.34,6.78,6.51,7,11.22.44,5-4.22,8.15-7.06,11.65C114.05,116.68,109.45,113.56,109.83,108.53Z" transform="translate(-5.42 -97.23)"/></g><path class="cls-1" d="M76.18,121.22c-.77-7.55,5.42-12.86,9.68-18.17C91,107.65,98,112,98.45,119.58c.82,7.71-5.47,13.13-9.85,18.55C83.51,133.36,76.4,128.93,76.18,121.22Z" transform="translate(-5.42 -97.23)"/><path class="cls-1" d="M135.17,119.41c.61-7.55,7.5-11.87,12.7-16.36,4.27,5.26,10.61,10.51,9.63,18.06-.11,7.71-7.33,12.15-12.37,16.85C140.59,132.66,134.24,127.24,135.17,119.41Z" transform="translate(-5.42 -97.23)"/><path class="cls-1" d="M57.19,113c2.9,1.09,6.51,1.64,8.26,4.54,1,3.12.06,6.45,0,9.68a20.66,20.66,0,0,1-9.58-3.45C56.15,120.13,56.59,116.52,57.19,113Z" transform="translate(-5.42 -97.23)"/><path class="cls-1" d="M168.28,117.44c1.8-2.4,4.81-3.5,7.28-5.14a37,37,0,0,1,2.4,11.22,29.66,29.66,0,0,1-9.46,3.94C168.28,124.17,167.19,120.67,168.28,117.44Z" transform="translate(-5.42 -97.23)"/><path class="cls-1" d="M35.9,140.42c1.48-3.77,4.6-6.51,7.06-9.57,3.34,3.5,8.32,6.89,7.61,12.47.11,5-4.6,7.94-7.55,11.27C39.57,150.66,34.32,146.39,35.9,140.42Z" transform="translate(-5.42 -97.23)"/><path class="cls-1" d="M182.78,143.16c-.17-5.36,4.6-8.86,7.94-12.36,3,4,8.32,7.87,7.22,13.62-1,4.21-4.71,7-7.39,10.23C187.43,151.26,183.06,148.19,182.78,143.16Z" transform="translate(-5.42 -97.23)"/><path class="cls-1" d="M65.45,142.94c8.16,4.11,18.12,9.09,19.71,19.1,2.29,9.52-4.6,17.45-9.36,24.84-8-4.65-18.5-9.47-19.49-20C54.34,157.6,61.13,150.27,65.45,142.94Z" transform="translate(-5.42 -97.23)"/><path class="cls-1" d="M148.47,161.82c1.7-10,11.71-14.61,19.7-18.93,2.85,4.76,6.29,9.25,8.43,14.44,2.51,7.28.49,16.09-5.53,21.07-4,3.33-8.7,5.85-13.19,8.53C153.23,179.44,146,171.45,148.47,161.82Z" transform="translate(-5.42 -97.23)"/><path class="cls-1" d="M19.32,145c2.79.22,5.58.55,8.37.82.72,3.12,1.42,6.19,2,9.36A75.63,75.63,0,0,1,20,153.45C19.7,150.6,19.48,147.81,19.32,145Z" transform="translate(-5.42 -97.23)"/><path class="cls-1" d="M17.46,163.9c6.84.11,15,1.91,18.06,8.81,3.72,6,.33,13-1.48,19-5.85-2.13-13.19-2.89-16.8-8.69C13.46,177.19,16.26,170.08,17.46,163.9Z" transform="translate(-5.42 -97.23)"/><path class="cls-1" d="M198.05,172.54c3.17-6.57,11-7.6,17.24-9.74,1.86,6.29,5.3,13.68,1.31,19.87-3.34,6.23-11,6.94-17,9.13C197.83,185.67,194.44,178.61,198.05,172.54Z" transform="translate(-5.42 -97.23)"/><path class="cls-1" d="M45.37,189.78c-2-4.16,1.09-8.1,2.9-11.65,3.06,2.62,8.32,4.43,8.32,9.24-.44,3.06-2.08,5.74-3.29,8.59C50.57,194.1,47.12,192.73,45.37,189.78Z" transform="translate(-5.42 -97.23)"/><path class="cls-1" d="M177.15,187.26c-.17-4.7,5-6.62,8-9.24,1.69,3.28,4.7,6.72,3.44,10.66-1.09,3.84-5.36,5.15-8.31,7.23C179.17,193.11,177.31,190.38,177.15,187.26Z" transform="translate(-5.42 -97.23)"/><rect class="cls-1" y="92.1" width="11.91" height="10.67"/><g class="cls-3"><path class="cls-1" d="M5.42,189.56c2.52.76,5.53.54,7.66,2.24,2.14,2,2.41,5.09,3.23,7.72a48.36,48.36,0,0,1-10.12-2.14C5.86,194.76,5.64,192.13,5.42,189.56Z" transform="translate(-5.42 -97.23)"/></g><path class="cls-1" d="M90.3,190.27c6.35,3.23,14,6.67,16,14.28,2.46,7.72-3.29,14.39-6.68,20.74-6.18-3.45-13.74-6.68-15.87-14.07C80.89,203.46,86.91,196.72,90.3,190.27Z" transform="translate(-5.42 -97.23)"/><path class="cls-1" d="M127.29,204.88c1.7-7.83,9.69-11.33,16.09-14.56,3.67,6.57,9.74,13.9,6.24,21.84-2.35,6.94-9.58,9.85-15.54,13.07C130.46,219.05,125.21,212.54,127.29,204.88Z" transform="translate(-5.42 -97.23)"/><rect class="cls-1" x="207.91" y="94.77" width="15.09" height="9.33"/><g class="cls-4"><path class="cls-1" d="M214.63,200.5a15.28,15.28,0,0,1,7.77-7.82c2,.87,4,1.7,6,2.57-1.31,2-2.68,3.94-4,5.91C221.14,201,217.86,200.78,214.63,200.5Z" transform="translate(-5.42 -97.23)"/></g><path class="cls-1" d="M201.88,156.84a15.34,15.34,0,0,1,6.07-9.19l6.41,1.31c-.93,2.19-1.87,4.38-2.79,6.57Q206.73,156.34,201.88,156.84Z" transform="translate(-5.42 -97.23)"/><path class="cls-1" d="M10.45,208.16c6.9,2.57,15.16,4.81,18.18,12.31,3.66,6.13,1.42,13.35.27,19.86-6.3-2.57-14-4.32-17.46-10.83C7.23,223.15,9.14,215.17,10.45,208.16Z" transform="translate(-5.42 -97.23)"/><path class="cls-1" d="M203.85,220.47c3.72-6.18,11.06-8.26,17.4-10.61,1,6.62,3.34,13.84-.38,20.08-3.07,7.38-11.44,9.25-18,12.14C201.44,235,199.31,226.88,203.85,220.47Z" transform="translate(-5.42 -97.23)"/><path class="cls-1" d="M185.57,249.58c2.52-2,5.86-2.46,8.87-3.44.11,3.82,2.08,8.31-.61,11.65-2.18,3.12-6.34,2.95-9.63,4C184.15,257.84,182.07,252.7,185.57,249.58Z" transform="translate(-5.42 -97.23)"/><path class="cls-1" d="M35,250.07a31,31,0,0,1,10.5,4.65c-.16,3.72-.38,7.45-.76,11.11-3.29-1.26-7.72-1.2-9.69-4.6C33,257.84,34.65,253.68,35,250.07Z" transform="translate(-5.42 -97.23)"/><path class="cls-1" d="M64.19,206.19a5.12,5.12,0,0,0-.92-4.21,3.56,3.56,0,0,0-6,.11,6.85,6.85,0,0,0-1,2.79c-1,7.66.17,15.38,1.87,22.81A75.61,75.61,0,0,0,64.19,206.19Z" transform="translate(-5.42 -97.23)"/><path class="cls-1" d="M169.48,206.24a6,6,0,0,0-.76-3.55,3.72,3.72,0,0,0-6.57-.05,3.78,3.78,0,0,0-.55,2.18c.11,7.88,2.85,15.44,5.92,22.6C168.28,220.47,169.59,213.36,169.48,206.24Z" transform="translate(-5.42 -97.23)"/><path class="cls-1" d="M102.78,280.33c.54-7.5,3.61-14.5,7.33-20.95C100.75,246,87.89,235,73.88,226.82c.06,3.77-.55,7.94,1.86,11.22,4.32,7,10.4,12.64,15.21,19.26-1.75,1.69-3.61,4.92-6.56,3.5-8.81-4.22-16.47-10.84-22.76-18.28-7.67-9.24-8.77-21.61-10.13-33-.06-4.1-6.08-7.33-8.16-2.74-2.24,9.19.33,18.77,1.37,28,1.7,13.89,8.7,26.53,17.79,36.93,10.61,12,22.82,22.49,34.09,33.92C99.77,297.46,102.17,289,102.78,280.33Z" transform="translate(-5.42 -97.23)"/><path class="cls-1" d="M67.53,244.05c2.3-10.83,8.1-21.66,5.69-32.94-.87-.38-2.62-1.2-3.55-1.58-2.9,8.1-5.81,16.25-9.2,24.18Q63.76,239.05,67.53,244.05Z" transform="translate(-5.42 -97.23)"/><path class="cls-1" d="M159.69,244.16c2.19-3.94,5.58-7.76,5.85-12.36a163.77,163.77,0,0,0-8.91-23.25c-1.7,3.17-4.55,6.51-3.29,10.39C154.87,227.47,157.61,235.74,159.69,244.16Z" transform="translate(-5.42 -97.23)"/><path class="cls-1" d="M97.69,157.77c0-13.08,11.76-21.34,19.26-30.59,7.66,9.14,18.49,17.73,19.15,30.59,1.15,13.68-11.54,22.21-19.2,31.74C109.18,180,96.7,171.5,97.69,157.77Z" transform="translate(-5.42 -97.23)"/><path class="cls-1" d="M196.14,328.59c1.43,0,1.82-.48,2.68-2l6.2-13.07H235.1l6.3,13.07c.76,1.53,1.24,2,2.67,2h8.78a1.36,1.36,0,0,0,1.34-2l-32.27-64.34c-.77-1.15-.95-1.92-1.72-1.92h-.29c-.66,0-.95.77-1.62,1.92L186,326.58a1.34,1.34,0,0,0,1.24,2ZM220,279.9h.19l11.07,23.77H208.94Z" transform="translate(-5.42 -97.23)"/><path class="cls-1" d="M300.78,292.69c-1.53,0-2,.48-2,2v5.83c0,1.62.48,2,2,2h13.74v11.93a25.41,25.41,0,0,1-15.65,5.25c-13.37,0-22.53-12.13-22.53-24.54s9.16-24.53,22.53-24.53a24.43,24.43,0,0,1,17.47,7.54,2.12,2.12,0,0,0,1.33.76,2.45,2.45,0,0,0,1.63-.95l4.39-4.78c1.05-1.24,1.34-1.81.19-3a37.65,37.65,0,0,0-25-9.73c-18.81,0-34.19,15.65-34.19,34.65s15.38,34.66,34.19,34.66c9.35,0,19.38-3.82,25.68-10a4.3,4.3,0,0,0,1.52-3.44V294.69c0-1.52-.38-2-2-2Z" transform="translate(-5.42 -97.23)"/><path class="cls-1" d="M395.38,328.59c1.63,0,2.77-.77,1.72-2.58L380,301c8.31-2.39,14.51-8.21,14.51-19.19,0-15.47-12.89-20.05-23.77-20.05H347.46c-1.53,0-2,.48-2,2v62.82c0,1.63.48,2,2,2H355c1.52,0,2-.38,2-2V302.14h11.18l16.61,24.44a4,4,0,0,0,3.53,2ZM370.27,271.4c8.22,0,13.08,3.15,13.08,10.41,0,6.87-4.1,10.69-13.08,10.69H357V271.4Z" transform="translate(-5.42 -97.23)"/><path class="cls-1" d="M444.45,260.52c-18.81,0-34.27,15.65-34.27,34.65s15.46,34.66,34.27,34.66,34.28-15.66,34.28-34.66S463.26,260.52,444.45,260.52Zm-22.62,34.65c0-12.5,9.26-24.53,22.62-24.53,13.66,0,22.63,12,22.63,24.53s-9,24.54-22.63,24.54C431.09,319.71,421.83,307.58,421.83,295.17Z" transform="translate(-5.42 -97.23)"/><path class="cls-1" d="M189.09,339.4h2.62v24.73h-2.62Z" transform="translate(-5.42 -97.23)"/><path class="cls-1" d="M248.72,339.4v24.73h-2.16l-15.9-20.07v20.07H228V339.4h2.16l15.94,20.06V339.4Z" transform="translate(-5.42 -97.23)"/><path class="cls-1" d="M305.73,339.4v24.73h-2.16l-15.9-20.07v20.07H285V339.4h2.17l15.94,20.06V339.4Z" transform="translate(-5.42 -97.23)"/><path class="cls-1" d="M352.87,364.34a13.6,13.6,0,0,1-6.67-1.65,12,12,0,0,1-4.67-4.5,13.26,13.26,0,0,1,0-12.85,11.89,11.89,0,0,1,4.67-4.5,14.32,14.32,0,0,1,13.29,0,12.11,12.11,0,0,1,4.65,4.5,13.09,13.09,0,0,1,0,12.9,12,12,0,0,1-4.65,4.5A13.5,13.5,0,0,1,352.87,364.34Zm0-2.34a10.78,10.78,0,0,0,5.29-1.31,9.67,9.67,0,0,0,3.71-3.69,10.84,10.84,0,0,0,0-10.48,9.46,9.46,0,0,0-3.71-3.66,10.58,10.58,0,0,0-5.29-1.34,10.75,10.75,0,0,0-5.32,1.34,9.7,9.7,0,0,0-3.75,3.66,10.84,10.84,0,0,0,0,10.48,9.91,9.91,0,0,0,3.75,3.69A11,11,0,0,0,352.87,362Z" transform="translate(-5.42 -97.23)"/><path class="cls-1" d="M420.54,339.4,409.6,364.13H407l-11-24.73h2.84l9.45,21.48,9.55-21.48Z" transform="translate(-5.42 -97.23)"/><path class="cls-1" d="M468.44,357.52H454.65l-3,6.61H449l11.31-24.73h2.58l11.31,24.73H471.4Zm-.95-2.12-5.94-13.29-5.94,13.29Z" transform="translate(-5.42 -97.23)"/><path class="cls-1" d="M126.35,312.53c-5.42,17-8.7,34.64-11.11,52.25-.11.71-.33,2.14-.44,2.9,10.78-.05,21.62,0,32.4-.05-.33-1.42-.66-2.85-1-4.21C141.67,345.74,133.68,329.22,126.35,312.53Z" transform="translate(-5.42 -97.23)"/><path class="cls-1" d="M181.39,221.13c-1.37,11.54-2.79,23.58-8.6,33.93-10.06,18.21-26.7,31.23-41.15,45.68-4.16,4.22-9.69,7.83-11,14-4.37,16.3-8.53,32.93-9.52,49.84v1.92h-2.51c-10.19.6-20.36-.06-30.54.21l1.47-4.27c6.85-23.14,17-45.19,25-67.95,4-10.34,2.08-22.16,7.66-32,6.78-13.73,19.32-23.09,31-32.39a47.5,47.5,0,0,1,7.61-4.32c1.48,13.13-11.05,20.74-17.35,30.53,2,2,4.43,5.31,7.55,3,12.59-7.12,25-17.45,28.9-31.95,2.14-6.68,1.59-13.85,3.5-20.53,1.15-3.66,5.91-4.92,7.88-1.14C182.43,210.79,181.82,216,181.39,221.13Z" transform="translate(-5.42 -97.23)"/></svg>