<svg xmlns="http://www.w3.org/2000/svg" xmlns:xlink="http://www.w3.org/1999/xlink" width="500" zoomAndPan="magnify" viewBox="0 0 375 374.999991" height="500" preserveAspectRatio="xMidYMid meet" version="1.0"><defs><g/><clipPath id="19e1eaa440"><path d="M 82 72.925781 L 93 72.925781 L 93 91 L 82 91 Z M 82 72.925781 " clip-rule="nonzero"/></clipPath><clipPath id="e5fc5a8e67"><path d="M 4.066406 142 L 13 142 L 13 150 L 4.066406 150 Z M 4.066406 142 " clip-rule="nonzero"/></clipPath><clipPath id="b5cacc341d"><path d="M 160 144 L 171.316406 144 L 171.316406 151 L 160 151 Z M 160 144 " clip-rule="nonzero"/></clipPath><clipPath id="d686c0f1a1"><path d="M 58 155 L 137 155 L 137 278.425781 L 58 278.425781 Z M 58 155 " clip-rule="nonzero"/></clipPath><clipPath id="db9878e17e"><path d="M 87 236 L 112 236 L 112 278.425781 L 87 278.425781 Z M 87 236 " clip-rule="nonzero"/></clipPath></defs><rect x="-37.5" width="450" fill="#ffffff" y="-37.499999" height="449.999989" fill-opacity="1"/><rect x="-37.5" width="450" fill="#ffffff" y="-37.499999" height="449.999989" fill-opacity="1"/><rect x="-37.5" width="450" fill="#ffffff" y="-37.499999" height="449.999989" fill-opacity="1"/><g clip-path="url(#19e1eaa440)"><path fill="#627444" d="M 82.375 81.394531 C 82.375 77.78125 85.617188 75.527344 87.671875 72.980469 C 89.761719 75.484375 92.757812 77.863281 92.921875 81.394531 C 93.253906 85.167969 89.761719 87.507812 87.628906 90.136719 C 85.535156 87.507812 82.089844 85.167969 82.375 81.394531 Z M 82.375 81.394531 " fill-opacity="1" fill-rule="nonzero"/></g><path fill="#627444" d="M 57.132812 90.914062 C 56.558594 85.25 61.199219 81.269531 64.398438 77.289062 C 68.257812 80.738281 73.46875 83.980469 73.839844 89.683594 C 74.453125 95.46875 69.734375 99.53125 66.449219 103.59375 C 62.632812 100.023438 57.296875 96.699219 57.132812 90.914062 Z M 57.132812 90.914062 " fill-opacity="1" fill-rule="nonzero"/><path fill="#627444" d="M 101.378906 89.558594 C 101.832031 83.898438 107 80.65625 110.902344 77.289062 C 114.101562 81.230469 118.863281 85.167969 118.125 90.832031 C 118.042969 96.617188 112.625 99.941406 108.847656 103.472656 C 105.441406 99.492188 100.679688 95.429688 101.378906 89.558594 Z M 101.378906 89.558594 " fill-opacity="1" fill-rule="nonzero"/><path fill="#627444" d="M 42.890625 84.71875 C 45.066406 85.539062 47.777344 85.949219 49.089844 88.125 C 49.871094 90.464844 49.132812 92.964844 49.050781 95.386719 C 46.421875 95.222656 44.042969 94.15625 41.867188 92.800781 C 42.113281 90.09375 42.441406 87.386719 42.890625 84.71875 Z M 42.890625 84.71875 " fill-opacity="1" fill-rule="nonzero"/><path fill="#627444" d="M 126.210938 88.082031 C 127.5625 86.277344 129.820312 85.457031 131.667969 84.226562 C 132.695312 86.894531 133.308594 89.722656 133.472656 92.636719 C 131.300781 93.992188 128.917969 95.058594 126.375 95.59375 C 126.210938 93.128906 125.390625 90.503906 126.210938 88.082031 Z M 126.210938 88.082031 " fill-opacity="1" fill-rule="nonzero"/><path fill="#627444" d="M 26.925781 105.316406 C 28.035156 102.488281 30.375 100.433594 32.222656 98.136719 C 34.726562 100.761719 38.460938 103.308594 37.925781 107.492188 C 38.007812 111.269531 34.480469 113.445312 32.261719 115.945312 C 29.675781 112.992188 25.738281 109.792969 26.925781 105.316406 Z M 26.925781 105.316406 " fill-opacity="1" fill-rule="nonzero"/><path fill="#627444" d="M 137.085938 107.371094 C 136.960938 103.347656 140.535156 100.722656 143.039062 98.097656 C 145.292969 101.132812 149.277344 104.003906 148.453125 108.3125 C 147.714844 111.472656 144.925781 113.566406 142.914062 115.988281 C 140.574219 113.445312 137.292969 111.144531 137.085938 107.371094 Z M 137.085938 107.371094 " fill-opacity="1" fill-rule="nonzero"/><path fill="#627444" d="M 49.089844 107.207031 C 55.207031 110.285156 62.675781 114.019531 63.867188 121.527344 C 65.589844 128.667969 60.417969 134.617188 56.847656 140.15625 C 50.8125 136.671875 42.972656 133.058594 42.234375 125.179688 C 40.757812 118.203125 45.847656 112.703125 49.089844 107.207031 Z M 49.089844 107.207031 " fill-opacity="1" fill-rule="nonzero"/><path fill="#627444" d="M 111.351562 121.363281 C 112.625 113.855469 120.136719 110.40625 126.128906 107.164062 C 128.261719 110.734375 130.847656 114.101562 132.449219 118 C 134.335938 123.457031 132.816406 130.0625 128.304688 133.796875 C 125.265625 136.300781 121.777344 138.1875 118.410156 140.199219 C 114.921875 134.578125 109.464844 128.585938 111.351562 121.363281 Z M 111.351562 121.363281 " fill-opacity="1" fill-rule="nonzero"/><path fill="#627444" d="M 14.492188 108.765625 C 16.582031 108.929688 18.675781 109.175781 20.769531 109.382812 C 21.304688 111.71875 21.835938 114.019531 22.289062 116.398438 C 19.828125 116.109375 17.40625 115.699219 14.984375 115.085938 C 14.777344 112.949219 14.613281 110.859375 14.492188 108.765625 Z M 14.492188 108.765625 " fill-opacity="1" fill-rule="nonzero"/><path fill="#627444" d="M 13.09375 122.921875 C 18.226562 123.003906 24.382812 124.359375 26.640625 129.53125 C 29.429688 134.042969 26.886719 139.296875 25.53125 143.808594 C 21.140625 142.210938 15.640625 141.636719 12.929688 137.285156 C 10.097656 132.894531 12.191406 127.558594 13.09375 122.921875 Z M 13.09375 122.921875 " fill-opacity="1" fill-rule="nonzero"/><path fill="#627444" d="M 148.535156 129.40625 C 150.917969 124.480469 156.828125 123.703125 161.464844 122.101562 C 162.859375 126.820312 165.445312 132.359375 162.449219 137 C 159.945312 141.675781 154.199219 142.210938 149.6875 143.851562 C 148.371094 139.253906 145.828125 133.960938 148.535156 129.40625 Z M 148.535156 129.40625 " fill-opacity="1" fill-rule="nonzero"/><path fill="#627444" d="M 34.027344 142.332031 C 32.550781 139.214844 34.847656 136.257812 36.203125 133.59375 C 38.5 135.5625 42.441406 136.917969 42.441406 140.527344 C 42.113281 142.824219 40.882812 144.835938 39.976562 146.96875 C 37.925781 145.574219 35.339844 144.550781 34.027344 142.332031 Z M 34.027344 142.332031 " fill-opacity="1" fill-rule="nonzero"/><path fill="#627444" d="M 132.859375 140.445312 C 132.734375 136.917969 136.59375 135.480469 138.851562 133.511719 C 140.125 135.972656 142.378906 138.558594 141.4375 141.511719 C 140.617188 144.386719 137.414062 145.371094 135.199219 146.929688 C 134.378906 144.835938 132.980469 142.785156 132.859375 140.445312 Z M 132.859375 140.445312 " fill-opacity="1" fill-rule="nonzero"/><g clip-path="url(#e5fc5a8e67)"><path fill="#627444" d="M 4.066406 142.167969 C 5.953125 142.742188 8.210938 142.578125 9.8125 143.851562 C 11.414062 145.328125 11.617188 147.667969 12.234375 149.636719 C 9.648438 149.351562 7.101562 148.859375 4.640625 148.035156 C 4.394531 146.066406 4.230469 144.097656 4.066406 142.167969 Z M 4.066406 142.167969 " fill-opacity="1" fill-rule="nonzero"/></g><path fill="#627444" d="M 67.722656 142.703125 C 72.484375 145.125 78.1875 147.707031 79.707031 153.414062 C 81.554688 159.199219 77.246094 164.207031 74.699219 168.964844 C 70.0625 166.378906 64.398438 163.960938 62.796875 158.417969 C 60.664062 152.59375 65.179688 147.542969 67.722656 142.703125 Z M 67.722656 142.703125 " fill-opacity="1" fill-rule="nonzero"/><path fill="#627444" d="M 95.46875 153.660156 C 96.742188 147.789062 102.734375 145.164062 107.535156 142.742188 C 110.285156 147.667969 114.839844 153.167969 112.214844 159.117188 C 110.449219 164.328125 105.03125 166.503906 100.558594 168.925781 C 97.847656 164.289062 93.910156 159.402344 95.46875 153.660156 Z M 95.46875 153.660156 " fill-opacity="1" fill-rule="nonzero"/><g clip-path="url(#b5cacc341d)"><path fill="#627444" d="M 160.972656 150.375 C 162.246094 147.789062 164.09375 145.617188 166.800781 144.507812 C 168.277344 145.164062 169.796875 145.78125 171.316406 146.4375 C 170.332031 147.914062 169.304688 149.390625 168.320312 150.867188 C 165.855469 150.746094 163.394531 150.582031 160.972656 150.375 Z M 160.972656 150.375 " fill-opacity="1" fill-rule="nonzero"/></g><path fill="#627444" d="M 151.410156 117.628906 C 152.148438 114.878906 153.542969 112.335938 155.964844 110.734375 C 157.566406 111.0625 159.167969 111.390625 160.769531 111.71875 C 160.070312 113.363281 159.371094 115.003906 158.675781 116.644531 C 156.253906 117.054688 153.832031 117.382812 151.410156 117.628906 Z M 151.410156 117.628906 " fill-opacity="1" fill-rule="nonzero"/><path fill="#627444" d="M 7.839844 156.121094 C 13.011719 158.050781 19.210938 159.730469 21.46875 165.355469 C 24.21875 169.949219 22.535156 175.367188 21.671875 180.25 C 16.953125 178.320312 11.207031 177.007812 8.582031 172.125 C 5.421875 167.363281 6.855469 161.375 7.839844 156.121094 Z M 7.839844 156.121094 " fill-opacity="1" fill-rule="nonzero"/><path fill="#627444" d="M 152.886719 165.355469 C 155.679688 160.71875 161.179688 159.15625 165.9375 157.394531 C 166.679688 162.359375 168.441406 167.777344 165.652344 172.453125 C 163.351562 177.992188 157.074219 179.390625 152.148438 181.5625 C 151.082031 176.269531 149.480469 170.15625 152.886719 165.355469 Z M 152.886719 165.355469 " fill-opacity="1" fill-rule="nonzero"/><path fill="#627444" d="M 139.179688 187.1875 C 141.066406 185.667969 143.570312 185.339844 145.828125 184.601562 C 145.910156 187.472656 147.386719 190.835938 145.375 193.339844 C 143.734375 195.679688 140.617188 195.558594 138.152344 196.335938 C 138.113281 193.382812 136.550781 189.523438 139.179688 187.1875 Z M 139.179688 187.1875 " fill-opacity="1" fill-rule="nonzero"/><path fill="#627444" d="M 26.269531 187.554688 C 29.101562 188.253906 31.769531 189.359375 34.148438 191.042969 C 34.027344 193.832031 33.863281 196.625 33.574219 199.375 C 31.113281 198.429688 27.789062 198.46875 26.3125 195.925781 C 24.710938 193.382812 25.984375 190.261719 26.269531 187.554688 Z M 26.269531 187.554688 " fill-opacity="1" fill-rule="nonzero"/><path fill="#627444" d="M 48.144531 154.644531 C 48.433594 153.414062 48.0625 152.386719 47.449219 151.484375 C 46.339844 149.882812 43.960938 149.925781 42.972656 151.566406 C 42.605469 152.183594 42.316406 152.878906 42.234375 153.660156 C 41.496094 159.402344 42.359375 165.191406 43.632812 170.769531 C 45.847656 165.640625 47.53125 160.183594 48.144531 154.644531 Z M 48.144531 154.644531 " fill-opacity="1" fill-rule="nonzero"/><path fill="#627444" d="M 127.113281 154.683594 C 127.234375 153.699219 126.949219 152.839844 126.539062 152.015625 C 125.472656 150.046875 122.679688 150.007812 121.613281 151.976562 C 121.324219 152.46875 121.160156 153.003906 121.203125 153.617188 C 121.285156 159.527344 123.335938 165.191406 125.636719 170.566406 C 126.210938 165.355469 127.195312 160.019531 127.113281 154.683594 Z M 127.113281 154.683594 " fill-opacity="1" fill-rule="nonzero"/><path fill="#627444" d="M 77.082031 210.246094 C 77.492188 204.625 79.789062 199.375 82.582031 194.53125 C 75.5625 184.476562 65.917969 176.269531 55.410156 170.113281 C 55.453125 172.945312 55 176.066406 56.804688 178.527344 C 60.046875 183.78125 64.605469 188.007812 68.214844 192.972656 C 66.902344 194.242188 65.507812 196.664062 63.289062 195.597656 C 56.683594 192.4375 50.9375 187.472656 46.21875 181.890625 C 40.472656 174.957031 39.648438 165.683594 38.625 157.148438 C 38.582031 154.070312 34.066406 151.648438 32.507812 155.09375 C 30.824219 161.988281 32.753906 169.171875 33.535156 176.105469 C 34.808594 186.527344 40.058594 196.007812 46.875 203.804688 C 54.835938 212.832031 63.988281 220.671875 72.445312 229.246094 C 74.824219 223.09375 76.628906 216.773438 77.082031 210.246094 Z M 77.082031 210.246094 " fill-opacity="1" fill-rule="nonzero"/><g clip-path="url(#d686c0f1a1)"><path fill="#627444" d="M 136.265625 168.925781 C 135.238281 177.582031 134.171875 186.609375 129.820312 194.367188 C 122.269531 208.03125 109.792969 217.796875 98.957031 228.632812 C 95.835938 231.792969 91.691406 234.5 90.707031 239.097656 C 87.425781 251.324219 84.304688 263.800781 83.566406 276.480469 L 83.566406 277.917969 L 81.679688 277.917969 C 74.042969 278.367188 66.410156 277.875 58.777344 278.082031 C 59.144531 277.015625 59.515625 275.945312 59.882812 274.878906 C 65.015625 257.523438 72.609375 240.984375 78.601562 223.914062 C 81.636719 216.15625 80.160156 207.292969 84.347656 199.90625 C 89.433594 189.605469 98.832031 182.589844 107.574219 175.613281 C 109.339844 174.257812 111.351562 173.355469 113.28125 172.371094 C 114.390625 182.21875 104.992188 187.925781 100.269531 195.269531 C 101.746094 196.746094 103.59375 199.25 105.933594 197.527344 C 115.375 192.191406 124.648438 184.4375 127.605469 173.5625 C 129.207031 168.554688 128.796875 163.179688 130.230469 158.171875 C 131.09375 155.421875 134.664062 154.480469 136.140625 157.3125 C 137.046875 161.167969 136.59375 165.109375 136.265625 168.925781 Z M 136.265625 168.925781 " fill-opacity="1" fill-rule="nonzero"/></g><path fill="#627444" d="M 50.648438 183.039062 C 52.375 174.914062 56.722656 166.789062 54.917969 158.335938 C 54.261719 158.050781 52.949219 157.433594 52.25 157.148438 C 50.074219 163.21875 47.898438 169.335938 45.355469 175.285156 C 46.996094 177.953125 48.761719 180.539062 50.648438 183.039062 Z M 50.648438 183.039062 " fill-opacity="1" fill-rule="nonzero"/><path fill="#627444" d="M 119.765625 183.121094 C 121.40625 180.167969 123.953125 177.296875 124.15625 173.847656 C 122.433594 167.898438 120.09375 162.070312 117.46875 156.410156 C 116.195312 158.789062 114.0625 161.292969 115.003906 164.207031 C 116.152344 170.605469 118.207031 176.804688 119.765625 183.121094 Z M 119.765625 183.121094 " fill-opacity="1" fill-rule="nonzero"/><g clip-path="url(#db9878e17e)"><path fill="#627444" d="M 95.753906 236.757812 C 91.691406 249.519531 89.230469 262.734375 87.425781 275.945312 C 87.34375 276.480469 87.179688 277.546875 87.09375 278.121094 C 95.179688 278.082031 103.308594 278.121094 111.394531 278.082031 C 111.148438 277.015625 110.902344 275.945312 110.613281 274.921875 C 107.246094 261.667969 101.253906 249.273438 95.753906 236.757812 Z M 95.753906 236.757812 " fill-opacity="1" fill-rule="nonzero"/></g><path fill="#627444" d="M 73.265625 118.328125 C 73.304688 108.519531 82.089844 102.324219 87.710938 95.386719 C 93.457031 102.242188 101.582031 108.683594 102.078125 118.328125 C 102.9375 128.585938 93.417969 134.988281 87.671875 142.128906 C 81.882812 135.027344 72.527344 128.625 73.265625 118.328125 Z M 73.265625 118.328125 " fill-opacity="1" fill-rule="nonzero"/><g fill="#627444" fill-opacity="1"><g transform="translate(138.799171, 246.442209)"><g><path d="M 8.304688 0 C 9.378906 0 9.667969 -0.359375 10.3125 -1.503906 L 14.964844 -11.3125 L 37.523438 -11.3125 L 42.25 -1.503906 C 42.820312 -0.359375 43.179688 0 44.253906 0 L 50.839844 0 C 51.773438 0 52.203125 -0.789062 51.84375 -1.503906 L 27.640625 -49.765625 C 27.066406 -50.625 26.925781 -51.199219 26.351562 -51.199219 L 26.136719 -51.199219 C 25.636719 -51.199219 25.421875 -50.625 24.917969 -49.765625 L 0.714844 -1.503906 C 0.359375 -0.789062 0.789062 0 1.648438 0 Z M 26.207031 -36.519531 L 26.351562 -36.519531 L 34.65625 -18.691406 L 17.902344 -18.691406 Z M 26.207031 -36.519531 "/></g></g></g><g fill="#627444" fill-opacity="1"><g transform="translate(195.220177, 246.442209)"><g><path d="M 30.363281 -26.925781 C 29.214844 -26.925781 28.859375 -26.566406 28.859375 -25.421875 L 28.859375 -21.050781 C 28.859375 -19.835938 29.214844 -19.546875 30.363281 -19.546875 L 40.671875 -19.546875 L 40.671875 -10.597656 C 37.808594 -8.304688 33.582031 -6.660156 28.929688 -6.660156 C 18.90625 -6.660156 12.03125 -15.753906 12.03125 -25.0625 C 12.03125 -34.441406 18.90625 -43.464844 28.929688 -43.464844 C 34.085938 -43.464844 38.8125 -41.175781 42.035156 -37.808594 C 42.390625 -37.449219 42.75 -37.234375 43.035156 -37.234375 C 43.464844 -37.234375 43.824219 -37.523438 44.253906 -37.953125 L 47.546875 -41.53125 C 48.335938 -42.464844 48.550781 -42.894531 47.691406 -43.753906 C 42.964844 -48.191406 35.875 -51.054688 28.929688 -51.054688 C 14.824219 -51.054688 3.292969 -39.3125 3.292969 -25.0625 C 3.292969 -10.8125 14.824219 0.929688 28.929688 0.929688 C 35.945312 0.929688 43.464844 -1.933594 48.191406 -6.585938 C 48.980469 -7.375 49.335938 -8.019531 49.335938 -9.164062 L 49.335938 -25.421875 C 49.335938 -26.566406 49.050781 -26.925781 47.832031 -26.925781 Z M 30.363281 -26.925781 "/></g></g></g><g fill="#627444" fill-opacity="1"><g transform="translate(252.858386, 246.442209)"><g><path d="M 43.679688 0 C 44.898438 0 45.757812 -0.574219 44.96875 -1.933594 L 32.152344 -20.695312 C 38.382812 -22.484375 43.035156 -26.851562 43.035156 -35.085938 C 43.035156 -46.6875 33.367188 -50.125 25.207031 -50.125 L 7.734375 -50.125 C 6.585938 -50.125 6.230469 -49.765625 6.230469 -48.621094 L 6.230469 -1.503906 C 6.230469 -0.285156 6.585938 0 7.734375 0 L 13.390625 0 C 14.535156 0 14.894531 -0.285156 14.894531 -1.503906 L 14.894531 -19.835938 L 23.273438 -19.835938 L 35.730469 -1.503906 C 36.449219 -0.5 37.164062 0 38.382812 0 Z M 24.847656 -42.894531 C 31.007812 -42.894531 34.65625 -40.53125 34.65625 -35.085938 C 34.65625 -29.933594 31.578125 -27.066406 24.847656 -27.066406 L 14.894531 -27.066406 L 14.894531 -42.894531 Z M 24.847656 -42.894531 "/></g></g></g><g fill="#627444" fill-opacity="1"><g transform="translate(304.339064, 246.442209)"><g><path d="M 29 -51.054688 C 14.894531 -51.054688 3.292969 -39.3125 3.292969 -25.0625 C 3.292969 -10.8125 14.894531 0.929688 29 0.929688 C 43.109375 0.929688 54.707031 -10.8125 54.707031 -25.0625 C 54.707031 -39.3125 43.109375 -51.054688 29 -51.054688 Z M 12.03125 -25.0625 C 12.03125 -34.441406 18.976562 -43.464844 29 -43.464844 C 39.242188 -43.464844 45.972656 -34.441406 45.972656 -25.0625 C 45.972656 -15.753906 39.242188 -6.660156 29 -6.660156 C 18.976562 -6.660156 12.03125 -15.753906 12.03125 -25.0625 Z M 12.03125 -25.0625 "/></g></g></g><g fill="#627444" fill-opacity="1"><g transform="translate(138.799171, 273.095053)"><g><path d="M 3.015625 -18.546875 L 4.984375 -18.546875 L 4.984375 0 L 3.015625 0 Z M 3.015625 -18.546875 "/></g></g></g><g fill="#627444" fill-opacity="1"><g transform="translate(168.011859, 273.095053)"><g><path d="M 18.53125 -18.546875 L 18.53125 0 L 16.90625 0 L 4.984375 -15.046875 L 4.984375 0 L 3.015625 0 L 3.015625 -18.546875 L 4.640625 -18.546875 L 16.59375 -3.5 L 16.59375 -18.546875 Z M 18.53125 -18.546875 "/></g></g></g><g fill="#627444" fill-opacity="1"><g transform="translate(210.767813, 273.095053)"><g><path d="M 18.53125 -18.546875 L 18.53125 0 L 16.90625 0 L 4.984375 -15.046875 L 4.984375 0 L 3.015625 0 L 3.015625 -18.546875 L 4.640625 -18.546875 L 16.59375 -3.5 L 16.59375 -18.546875 Z M 18.53125 -18.546875 "/></g></g></g><g fill="#627444" fill-opacity="1"><g transform="translate(253.523763, 273.095053)"><g><path d="M 11.125 0.15625 C 9.289062 0.15625 7.625 -0.253906 6.125 -1.078125 C 4.632812 -1.898438 3.46875 -3.023438 2.625 -4.453125 C 1.789062 -5.878906 1.375 -7.488281 1.375 -9.28125 C 1.375 -11.0625 1.789062 -12.664062 2.625 -14.09375 C 3.46875 -15.53125 4.632812 -16.65625 6.125 -17.46875 C 7.625 -18.289062 9.289062 -18.703125 11.125 -18.703125 C 12.96875 -18.703125 14.625 -18.296875 16.09375 -17.484375 C 17.570312 -16.671875 18.734375 -15.546875 19.578125 -14.109375 C 20.429688 -12.671875 20.859375 -11.0625 20.859375 -9.28125 C 20.859375 -7.488281 20.429688 -5.875 19.578125 -4.4375 C 18.734375 -3 17.570312 -1.875 16.09375 -1.0625 C 14.625 -0.25 12.96875 0.15625 11.125 0.15625 Z M 11.125 -1.59375 C 12.59375 -1.59375 13.914062 -1.921875 15.09375 -2.578125 C 16.28125 -3.242188 17.207031 -4.164062 17.875 -5.34375 C 18.550781 -6.519531 18.890625 -7.832031 18.890625 -9.28125 C 18.890625 -10.726562 18.550781 -12.035156 17.875 -13.203125 C 17.207031 -14.378906 16.28125 -15.296875 15.09375 -15.953125 C 13.914062 -16.617188 12.59375 -16.953125 11.125 -16.953125 C 9.664062 -16.953125 8.335938 -16.617188 7.140625 -15.953125 C 5.953125 -15.296875 5.015625 -14.378906 4.328125 -13.203125 C 3.648438 -12.035156 3.3125 -10.726562 3.3125 -9.28125 C 3.3125 -7.832031 3.648438 -6.519531 4.328125 -5.34375 C 5.015625 -4.164062 5.953125 -3.242188 7.140625 -2.578125 C 8.335938 -1.921875 9.664062 -1.59375 11.125 -1.59375 Z M 11.125 -1.59375 "/></g></g></g><g fill="#627444" fill-opacity="1"><g transform="translate(296.968806, 273.095053)"><g><path d="M 18.4375 -18.546875 L 10.234375 0 L 8.296875 0 L 0.078125 -18.546875 L 2.203125 -18.546875 L 9.296875 -2.4375 L 16.453125 -18.546875 Z M 18.4375 -18.546875 "/></g></g></g><g fill="#627444" fill-opacity="1"><g transform="translate(336.676869, 273.095053)"><g><path d="M 14.65625 -4.953125 L 4.3125 -4.953125 L 2.09375 0 L 0.046875 0 L 8.53125 -18.546875 L 10.46875 -18.546875 L 18.953125 0 L 16.875 0 Z M 13.9375 -6.546875 L 9.484375 -16.515625 L 5.03125 -6.546875 Z M 13.9375 -6.546875 "/></g></g></g></svg>