<?xml version="1.0" encoding="utf-8"?>
<!-- Generator: Adobe Illustrator 24.2.0, SVG Export Plug-In . SVG Version: 6.00 Build 0)  -->
<svg version="1.1" id="Capa_1" xmlns="http://www.w3.org/2000/svg" xmlns:xlink="http://www.w3.org/1999/xlink" x="0px" y="0px"
	 viewBox="0 0 500 500" style="enable-background:new 0 0 500 500;" xml:space="preserve">
<style type="text/css">
	.st0{fill:#FFFFFF;}
	.st1{clip-path:url(#SVGID_2_);}
	.st2{fill:#627444;}
	.st3{clip-path:url(#SVGID_4_);}
	.st4{clip-path:url(#SVGID_6_);}
	.st5{fill:#7C550F;}
	.st6{clip-path:url(#SVGID_8_);}
	.st7{clip-path:url(#SVGID_10_);}
</style>
<rect x="-50" y="-50" class="st0" width="600" height="600"/>
<rect x="-50" y="-50" class="st0" width="600" height="600"/>
<rect x="-50" y="-50" class="st0" width="600" height="600"/>
<g>
	<defs>
		<rect id="SVGID_1_" x="109.3" y="97.2" width="14.7" height="24.1"/>
	</defs>
	<clipPath id="SVGID_2_">
		<use xlink:href="#SVGID_1_"  style="overflow:visible;"/>
	</clipPath>
	<g class="st1">
		<path class="st2" d="M109.8,108.5c0-4.8,4.3-7.8,7.1-11.2c2.8,3.3,6.8,6.5,7,11.2c0.4,5-4.2,8.2-7.1,11.7
			C114,116.7,109.5,113.6,109.8,108.5z"/>
	</g>
</g>
<path class="st2" d="M76.2,121.2c-0.8-7.6,5.4-12.9,9.7-18.2c5.1,4.6,12.1,8.9,12.6,16.5c0.8,7.7-5.5,13.1-9.9,18.5
	C83.5,133.4,76.4,128.9,76.2,121.2z"/>
<path class="st2" d="M135.2,119.4c0.6-7.5,7.5-11.9,12.7-16.4c4.3,5.3,10.6,10.5,9.6,18.1c-0.1,7.7-7.3,12.1-12.4,16.9
	C140.6,132.7,134.2,127.2,135.2,119.4z"/>
<path class="st2" d="M57.2,113c2.9,1.1,6.5,1.6,8.3,4.5c1,3.1,0.1,6.5-0.1,9.7c-3.5-0.2-6.7-1.6-9.6-3.4
	C56.2,120.1,56.6,116.5,57.2,113z"/>
<path class="st2" d="M168.3,117.4c1.8-2.4,4.8-3.5,7.3-5.1c1.4,3.6,2.2,7.3,2.4,11.2c-2.9,1.8-6.1,3.2-9.5,3.9
	C168.3,124.2,167.2,120.7,168.3,117.4z"/>
<path class="st2" d="M35.9,140.4c1.5-3.8,4.6-6.5,7.1-9.6c3.3,3.5,8.3,6.9,7.6,12.5c0.1,5-4.6,7.9-7.6,11.3
	C39.6,150.7,34.3,146.4,35.9,140.4z"/>
<path class="st2" d="M182.8,143.2c-0.2-5.4,4.6-8.9,7.9-12.4c3,4,8.3,7.9,7.2,13.6c-1,4.2-4.7,7-7.4,10.2
	C187.4,151.3,183.1,148.2,182.8,143.2z"/>
<path class="st2" d="M65.5,142.9c8.2,4.1,18.1,9.1,19.7,19.1c2.3,9.5-4.6,17.5-9.4,24.8c-8-4.6-18.5-9.5-19.5-20
	C54.3,157.6,61.1,150.3,65.5,142.9z"/>
<path class="st2" d="M148.5,161.8c1.7-10,11.7-14.6,19.7-18.9c2.8,4.8,6.3,9.2,8.4,14.4c2.5,7.3,0.5,16.1-5.5,21.1
	c-4.1,3.3-8.7,5.9-13.2,8.5C153.2,179.4,146,171.4,148.5,161.8z"/>
<path class="st2" d="M19.3,145c2.8,0.2,5.6,0.5,8.4,0.8c0.7,3.1,1.4,6.2,2,9.4c-3.3-0.4-6.5-0.9-9.7-1.8
	C19.7,150.6,19.5,147.8,19.3,145z"/>
<path class="st2" d="M17.5,163.9c6.8,0.1,15.1,1.9,18.1,8.8c3.7,6,0.3,13-1.5,19c-5.9-2.1-13.2-2.9-16.8-8.7
	C13.5,177.2,16.3,170.1,17.5,163.9z"/>
<path class="st2" d="M198,172.5c3.2-6.6,11.1-7.6,17.2-9.7c1.9,6.3,5.3,13.7,1.3,19.9c-3.3,6.2-11,6.9-17,9.1
	C197.8,185.7,194.4,178.6,198,172.5z"/>
<path class="st2" d="M45.4,189.8c-2-4.2,1.1-8.1,2.9-11.7c3.1,2.6,8.3,4.4,8.3,9.2c-0.4,3.1-2.1,5.7-3.3,8.6
	C50.6,194.1,47.1,192.7,45.4,189.8z"/>
<path class="st2" d="M177.1,187.3c-0.2-4.7,5-6.6,8-9.2c1.7,3.3,4.7,6.7,3.4,10.7c-1.1,3.8-5.4,5.1-8.3,7.2
	C179.2,193.1,177.3,190.4,177.1,187.3z"/>
<g>
	<defs>
		<rect id="SVGID_3_" x="5.4" y="189.3" width="11.9" height="10.7"/>
	</defs>
	<clipPath id="SVGID_4_">
		<use xlink:href="#SVGID_3_"  style="overflow:visible;"/>
	</clipPath>
	<g class="st3">
		<path class="st2" d="M5.4,189.6c2.5,0.8,5.5,0.5,7.7,2.2c2.1,2,2.4,5.1,3.2,7.7c-3.4-0.4-6.8-1-10.1-2.1
			C5.9,194.8,5.6,192.1,5.4,189.6z"/>
	</g>
</g>
<path class="st2" d="M90.3,190.3c6.3,3.2,14,6.7,16,14.3c2.5,7.7-3.3,14.4-6.7,20.7c-6.2-3.4-13.7-6.7-15.9-14.1
	C80.9,203.5,86.9,196.7,90.3,190.3z"/>
<path class="st2" d="M127.3,204.9c1.7-7.8,9.7-11.3,16.1-14.6c3.7,6.6,9.7,13.9,6.2,21.8c-2.4,6.9-9.6,9.8-15.5,13.1
	C130.5,219.1,125.2,212.5,127.3,204.9z"/>
<g>
	<defs>
		<rect id="SVGID_5_" x="213.3" y="192" width="15.1" height="9.3"/>
	</defs>
	<clipPath id="SVGID_6_">
		<use xlink:href="#SVGID_5_"  style="overflow:visible;"/>
	</clipPath>
	<g class="st4">
		<path class="st2" d="M214.6,200.5c1.7-3.4,4.2-6.3,7.8-7.8c2,0.9,4,1.7,6,2.6c-1.3,2-2.7,3.9-4,5.9
			C221.1,201,217.9,200.8,214.6,200.5z"/>
	</g>
</g>
<path class="st2" d="M201.9,156.8c1-3.7,2.8-7.1,6.1-9.2c2.1,0.4,4.3,0.9,6.4,1.3c-0.9,2.2-1.9,4.4-2.8,6.6
	C208.3,156.1,205.1,156.5,201.9,156.8z"/>
<path class="st2" d="M10.5,208.2c6.9,2.6,15.2,4.8,18.2,12.3c3.7,6.1,1.4,13.3,0.3,19.9c-6.3-2.6-14-4.3-17.5-10.8
	C7.2,223.2,9.1,215.2,10.5,208.2z"/>
<path class="st2" d="M203.8,220.5c3.7-6.2,11.1-8.3,17.4-10.6c1,6.6,3.3,13.8-0.4,20.1c-3.1,7.4-11.4,9.2-18,12.1
	C201.4,235,199.3,226.9,203.8,220.5z"/>
<path class="st2" d="M185.6,249.6c2.5-2,5.9-2.5,8.9-3.4c0.1,3.8,2.1,8.3-0.6,11.7c-2.2,3.1-6.3,3-9.6,4
	C184.2,257.8,182.1,252.7,185.6,249.6z"/>
<path class="st2" d="M35,250.1c3.8,0.9,7.3,2.4,10.5,4.7c-0.2,3.7-0.4,7.4-0.8,11.1c-3.3-1.3-7.7-1.2-9.7-4.6
	C32.9,257.8,34.6,253.7,35,250.1z"/>
<path class="st5" d="M64.2,206.2c0.4-1.6-0.1-3-0.9-4.2c-1.5-2.1-4.7-2.1-6,0.1c-0.5,0.8-0.9,1.8-1,2.8c-1,7.7,0.2,15.4,1.9,22.8
	C61.1,220.9,63.4,213.6,64.2,206.2z"/>
<path class="st5" d="M169.5,206.2c0.2-1.3-0.2-2.5-0.8-3.6c-1.4-2.6-5.1-2.7-6.6-0.1c-0.4,0.7-0.6,1.4-0.5,2.2
	c0.1,7.9,2.8,15.4,5.9,22.6C168.3,220.5,169.6,213.4,169.5,206.2z"/>
<path class="st5" d="M102.8,280.3c0.5-7.5,3.6-14.5,7.3-21c-9.4-13.4-22.2-24.3-36.2-32.6c0.1,3.8-0.5,7.9,1.9,11.2
	c4.3,7,10.4,12.6,15.2,19.3c-1.8,1.7-3.6,4.9-6.6,3.5c-8.8-4.2-16.5-10.8-22.8-18.3c-7.7-9.2-8.8-21.6-10.1-33
	c-0.1-4.1-6.1-7.3-8.2-2.7c-2.2,9.2,0.3,18.8,1.4,28c1.7,13.9,8.7,26.5,17.8,36.9c10.6,12,22.8,22.5,34.1,33.9
	C99.8,297.5,102.2,289,102.8,280.3z"/>
<g>
	<defs>
		<rect id="SVGID_7_" x="77.3" y="206.7" width="105.3" height="164.6"/>
	</defs>
	<clipPath id="SVGID_8_">
		<use xlink:href="#SVGID_7_"  style="overflow:visible;"/>
	</clipPath>
	<g class="st6">
		<path class="st5" d="M181.7,225.2c-1.4,11.5-2.8,23.6-8.6,33.9c-10.1,18.2-26.7,31.2-41.2,45.7c-4.2,4.2-9.7,7.8-11,14
			c-4.4,16.3-8.5,32.9-9.5,49.8v1.9h-2.5c-10.2,0.6-20.4-0.1-30.5,0.2c0.5-1.4,1-2.8,1.5-4.3c6.8-23.1,17-45.2,25-68
			c4-10.3,2.1-22.2,7.7-32c6.8-13.7,19.3-23.1,31-32.4c2.4-1.8,5-3,7.6-4.3c1.5,13.1-11.1,20.7-17.3,30.5c2,2,4.4,5.3,7.6,3
			c12.6-7.1,25-17.5,28.9-32c2.1-6.7,1.6-13.8,3.5-20.5c1.2-3.7,5.9-4.9,7.9-1.1C182.7,214.9,182.1,220.1,181.7,225.2z"/>
	</g>
</g>
<path class="st5" d="M67.5,244.1c2.3-10.8,8.1-21.7,5.7-32.9c-0.9-0.4-2.6-1.2-3.6-1.6c-2.9,8.1-5.8,16.2-9.2,24.2
	C62.7,237.3,65,240.7,67.5,244.1z"/>
<path class="st5" d="M159.7,244.2c2.2-3.9,5.6-7.8,5.9-12.4c-2.3-7.9-5.4-15.7-8.9-23.2c-1.7,3.2-4.5,6.5-3.3,10.4
	C154.9,227.5,157.6,235.7,159.7,244.2z"/>
<g>
	<defs>
		<rect id="SVGID_9_" x="116" y="314.7" width="33.3" height="56.6"/>
	</defs>
	<clipPath id="SVGID_10_">
		<use xlink:href="#SVGID_9_"  style="overflow:visible;"/>
	</clipPath>
	<g class="st7">
		<path class="st5" d="M127.7,315.7c-5.4,17-8.7,34.6-11.1,52.2c-0.1,0.7-0.3,2.1-0.4,2.9c10.8-0.1,21.6,0,32.4-0.1
			c-0.3-1.4-0.7-2.8-1-4.2C143,348.9,135,332.4,127.7,315.7z"/>
	</g>
</g>
<path class="st2" d="M97.7,157.8c0.1-13.1,11.8-21.3,19.3-30.6c7.7,9.1,18.5,17.7,19.2,30.6c1.1,13.7-11.5,22.2-19.2,31.7
	C109.2,180,96.7,171.5,97.7,157.8z"/>
<g>
	<g transform="translate(138.799171, 246.442209)">
		<g>
			<path class="st2" d="M57.3,82.1c1.4,0,1.8-0.5,2.7-2l6.2-13.1h30.1l6.3,13.1c0.8,1.5,1.2,2,2.7,2h8.8c1.2,0,1.8-1.1,1.3-2
				L83.1,15.8c-0.8-1.1-1-1.9-1.7-1.9h-0.3c-0.7,0-1,0.8-1.6,1.9L47.2,80.1c-0.5,1,0.1,2,1.2,2H57.3z M81.2,33.5h0.2l11.1,23.8H70.1
				L81.2,33.5z"/>
		</g>
	</g>
</g>
<g>
	<g transform="translate(195.220177, 246.442209)">
		<g>
			<path class="st2" d="M105.6,46.2c-1.5,0-2,0.5-2,2v5.8c0,1.6,0.5,2,2,2h13.7V68c-3.8,3.1-9.5,5.2-15.7,5.2
				c-13.4,0-22.5-12.1-22.5-24.5c0-12.5,9.2-24.5,22.5-24.5c6.9,0,13.2,3.1,17.5,7.5c0.5,0.5,1,0.8,1.3,0.8c0.6,0,1.1-0.4,1.6-1
				l4.4-4.8c1.1-1.2,1.3-1.8,0.2-3c-6.3-5.9-15.8-9.7-25-9.7c-18.8,0-34.2,15.7-34.2,34.7s15.4,34.7,34.2,34.7
				c9.4,0,19.4-3.8,25.7-10c1.1-1.1,1.5-1.9,1.5-3.4V48.3c0-1.5-0.4-2-2-2H105.6z"/>
		</g>
	</g>
</g>
<g>
	<g transform="translate(252.858386, 246.442209)">
		<g>
			<path class="st2" d="M142.5,82.1c1.6,0,2.8-0.8,1.7-2.6l-17.1-25c8.3-2.4,14.5-8.2,14.5-19.2c0-15.5-12.9-20.1-23.8-20.1H94.6
				c-1.5,0-2,0.5-2,2v62.8c0,1.6,0.5,2,2,2h7.5c1.5,0,2-0.4,2-2V55.7h11.2l16.6,24.4c1,1.3,1.9,2,3.5,2H142.5z M117.4,25
				c8.2,0,13.1,3.2,13.1,10.4c0,6.9-4.1,10.7-13.1,10.7h-13.3V25H117.4z"/>
		</g>
	</g>
</g>
<g>
	<g transform="translate(304.339064, 246.442209)">
		<g>
			<path class="st2" d="M140.1,14.1c-18.8,0-34.3,15.7-34.3,34.7s15.5,34.7,34.3,34.7c18.8,0,34.3-15.7,34.3-34.7
				S158.9,14.1,140.1,14.1z M117.5,48.7c0-12.5,9.3-24.5,22.6-24.5c13.7,0,22.6,12,22.6,24.5c0,12.4-9,24.5-22.6,24.5
				C126.7,73.3,117.5,61.1,117.5,48.7z"/>
		</g>
	</g>
</g>
<g>
	<g transform="translate(138.799171, 273.095053)">
		<g>
			<path class="st2" d="M50.3,66.3h2.6V91h-2.6V66.3z"/>
		</g>
	</g>
</g>
<g>
	<g transform="translate(168.011859, 273.095053)">
		<g>
			<path class="st2" d="M80.7,66.3V91h-2.2L62.6,71V91H60V66.3h2.2l15.9,20.1V66.3H80.7z"/>
		</g>
	</g>
</g>
<g>
	<g transform="translate(210.767813, 273.095053)">
		<g>
			<path class="st2" d="M95,66.3V91h-2.2L76.9,71V91h-2.6V66.3h2.2l15.9,20.1V66.3H95z"/>
		</g>
	</g>
</g>
<g>
	<g transform="translate(253.523763, 273.095053)">
		<g>
			<path class="st2" d="M99.3,91.2c-2.4,0-4.7-0.5-6.7-1.6c-2-1.1-3.5-2.6-4.7-4.5c-1.1-1.9-1.7-4-1.7-6.4c0-2.4,0.6-4.5,1.7-6.4
				c1.1-1.9,2.7-3.4,4.7-4.5c2-1.1,4.2-1.6,6.7-1.6c2.5,0,4.7,0.5,6.6,1.6c2,1.1,3.5,2.6,4.6,4.5c1.1,1.9,1.7,4.1,1.7,6.4
				c0,2.4-0.6,4.5-1.7,6.5c-1.1,1.9-2.7,3.4-4.6,4.5C104,90.7,101.8,91.2,99.3,91.2z M99.3,88.9c2,0,3.7-0.4,5.3-1.3
				c1.6-0.9,2.8-2.1,3.7-3.7c0.9-1.6,1.4-3.3,1.4-5.2c0-1.9-0.5-3.7-1.4-5.2c-0.9-1.6-2.1-2.8-3.7-3.7c-1.6-0.9-3.3-1.3-5.3-1.3
				c-1.9,0-3.7,0.4-5.3,1.3c-1.6,0.9-2.8,2.1-3.8,3.7c-0.9,1.6-1.4,3.3-1.4,5.2c0,1.9,0.4,3.7,1.4,5.2c0.9,1.6,2.2,2.8,3.8,3.7
				C95.6,88.5,97.4,88.9,99.3,88.9z"/>
		</g>
	</g>
</g>
<g>
	<g transform="translate(296.968806, 273.095053)">
		<g>
			<path class="st2" d="M123.6,66.3L112.6,91h-2.6l-11-24.7h2.8l9.5,21.5l9.5-21.5H123.6z"/>
		</g>
	</g>
</g>
<g>
	<g transform="translate(336.676869, 273.095053)">
		<g>
			<path class="st2" d="M131.8,84.4H118l-3,6.6h-2.7l11.3-24.7h2.6L137.5,91h-2.8L131.8,84.4z M130.8,82.3L124.9,69l-5.9,13.3H130.8
				z"/>
		</g>
	</g>
</g>
</svg>
